<?xml version="1.0" standalone="no"?>
<!DOCTYPE svg PUBLIC "-//W3C//DTD SVG 20010904//EN"
 "http://www.w3.org/TR/2001/REC-SVG-20010904/DTD/svg10.dtd">
<svg version="1.0" xmlns="http://www.w3.org/2000/svg"
 width="474.000000pt" height="272.000000pt" viewBox="0 0 474.000000 272.000000"
 preserveAspectRatio="xMidYMid meet">

<g transform="translate(0.000000,272.000000) scale(0.100000,-0.100000)"
fill="#000000" stroke="none">
<path d="M3122 2680 c-197 -94 -362 -383 -587 -1025 -36 -104 -77 -221 -91
-259 -20 -56 -42 -89 -110 -167 -255 -293 -469 -411 -749 -412 -177 -1 -284
34 -422 138 -114 85 -201 196 -373 480 -66 109 -147 235 -178 279 -74 105
-242 272 -317 316 -120 71 -263 102 -284 61 -16 -29 8 -48 69 -55 188 -23 347
-205 508 -586 22 -52 87 -221 145 -375 166 -442 234 -593 343 -758 184 -276
454 -378 694 -260 232 114 430 452 679 1161 l61 173 94 112 c212 254 371 365
565 397 42 7 102 10 135 6 244 -25 420 -185 681 -616 182 -301 292 -449 423
-570 85 -79 189 -136 263 -146 40 -6 49 -4 58 13 15 30 -5 48 -69 62 -122 26
-221 126 -337 341 -55 100 -141 304 -248 585 -127 336 -189 484 -260 628 -124
250 -249 403 -380 468 -61 30 -81 34 -160 37 -83 3 -95 1 -153 -28z m285 -73
c126 -65 249 -223 373 -479 38 -80 70 -149 70 -154 0 -4 -29 43 -65 105 -153
269 -291 394 -470 423 -165 28 -322 -69 -466 -286 -32 -49 -59 -86 -59 -83 0
4 21 49 46 100 111 220 217 344 339 394 51 21 171 11 232 -20z m17 -175 c128
-60 263 -223 389 -469 50 -97 217 -477 217 -492 0 -3 -42 80 -94 184 -210 425
-362 596 -579 651 -140 36 -284 -8 -412 -127 -76 -71 -166 -188 -221 -285 -64
-115 -48 -60 25 83 115 227 209 355 314 427 79 54 119 67 212 63 66 -2 92 -8
149 -35z m-28 -171 c182 -64 330 -249 536 -669 125 -255 154 -332 52 -139
-208 393 -366 577 -559 649 -84 32 -244 32 -329 0 -128 -47 -258 -159 -385
-332 -35 -47 -65 -87 -68 -90 -17 -16 91 172 153 265 112 172 226 278 339 317
69 24 190 23 261 -1z m-43 -176 c37 -8 95 -29 130 -47 81 -42 213 -175 294
-294 63 -93 192 -320 257 -455 43 -88 40 -85 -75 101 -115 185 -179 268 -282
367 -93 89 -204 153 -304 173 -74 16 -232 8 -298 -15 -137 -47 -236 -114 -369
-249 l-89 -91 38 60 c170 268 352 425 525 454 79 13 97 12 173 -4z m-2556
-720 c253 -428 462 -584 781 -585 238 0 453 96 651 290 91 90 91 83 0 -41 -78
-106 -205 -233 -289 -289 -135 -91 -301 -132 -449 -109 -101 15 -167 41 -256
100 -152 102 -283 285 -465 649 -74 149 -68 146 27 -15z m158 -380 c179 -270
375 -395 620 -395 253 0 450 124 693 435 41 52 -21 -55 -104 -181 -132 -200
-273 -327 -422 -380 -53 -19 -87 -24 -167 -24 -168 1 -290 56 -419 191 -81 84
-129 151 -205 286 -47 84 -211 427 -211 442 0 3 37 -61 81 -144 45 -82 105
-186 134 -230z m49 -215 c83 -127 205 -252 293 -298 170 -90 349 -94 518 -12
137 66 249 175 378 367 31 48 60 89 64 92 16 15 -125 -243 -175 -319 -30 -47
-97 -126 -147 -177 -74 -75 -106 -99 -170 -130 -70 -33 -90 -38 -172 -41 -303
-14 -513 204 -757 786 -31 74 -56 137 -56 140 0 4 35 -63 78 -148 42 -85 108
-202 146 -260z m63 -249 c199 -282 474 -379 723 -255 87 44 197 146 274 255
81 114 84 116 38 23 -98 -196 -245 -368 -367 -429 -55 -28 -68 -30 -165 -30
-100 0 -108 2 -182 37 -143 68 -261 208 -383 456 -76 153 -94 210 -30 93 25
-47 67 -114 92 -150z"/>
</g>
</svg>
